<svg xmlns="http://www.w3.org/2000/svg" viewBox="0 0 24 24" fill="none" stroke="#F8F9FA" stroke-width="1.6" stroke-linecap="round" stroke-linejoin="round">
  <circle cx="12" cy="12" r="3" fill="#4A90E2" />
  <path d="M19.4 12.94a7.6 7.6 0 0 0 0-1.88l2.06-1.6-2-3.46-2.53.63a7.6 7.6 0 0 0-1.63-.94L14.8 3h-5.6L8.7 5.69a7.6 7.6 0 0 0-1.63.94l-2.53-.63-2 3.46 2.06 1.6a7.6 7.6 0 0 0 0 1.88l-2.06 1.6 2 3.46 2.53-.63c.5.4 1.05.72 1.63.94L9.2 21h5.6l.5-2.69c.58-.22 1.13-.54 1.63-.94l2.53.63 2-3.46-2.06-1.6z" />
</svg>
