<svg width="160" height="160" viewBox="0 0 160 160" xmlns="http://www.w3.org/2000/svg" role="img" aria-labelledby="logoTitle logoDesc">
  <title id="logoTitle">Logo Escolinha de Futebol da Chácara</title>
  <desc id="logoDesc">Escudo azul com bola e as letras EFC</desc>
  <defs>
    <linearGradient id="grad" x1="0" y1="0" x2="1" y2="1">
      <stop offset="0%" stop-color="#1d4ed8" />
      <stop offset="100%" stop-color="#0f172a" />
    </linearGradient>
  </defs>
  <g fill="none" fill-rule="evenodd">
    <circle cx="80" cy="80" r="75" fill="#0f172a" opacity="0.1" />
    <circle cx="80" cy="80" r="62" fill="#fff" stroke="#1d4ed8" stroke-width="6" />
    <path d="M80 30l18 12 18-6 12 18-6 18 12 18-12 18 6 18-18 12-18-6-18 12-18-12-18 6-12-18 6-18-12-18 12-18-6-18 18-12 18 6z" fill="#0f172a" opacity="0.08" />
    <circle cx="80" cy="78" r="34" fill="#0f172a" opacity="0.12" />
    <path d="M80 52c14 0 26 12 26 26s-12 26-26 26-26-12-26-26 12-26 26-26z" fill="#fff" />
    <path d="M80 52c14 0 26 12 26 26s-12 26-26 26-26-12-26-26 12-26 26-26z" stroke="#0f172a" stroke-width="4" opacity="0.2" />
    <path d="M80 12l46 18v38c0 28.4-18.6 53.7-46 61-27.4-7.3-46-32.6-46-61V30l46-18z" fill="url(#grad)" stroke="#0f172a" stroke-width="5" />
    <text x="80" y="104" fill="#fff" font-family="'Montserrat', 'Segoe UI', sans-serif" font-size="36" font-weight="700" text-anchor="middle">EFC</text>
    <circle cx="66" cy="118" r="4" fill="#fff" opacity="0.8" />
    <circle cx="94" cy="118" r="4" fill="#fff" opacity="0.8" />
  </g>
</svg>
